<svg aria-hidden="true" xmlns="http://www.w3.org/2000/svg" xmlns:xlink="http://www.w3.org/1999/xlink"><symbol viewBox="0 0 23 12" id="arrow" xmlns="http://www.w3.org/2000/svg">
<g clip-path="url(#aclip0_2232_1684)">
<path d="M5.49988 6.75006L15.6893 6.75006L12.9696 9.46978C12.6767 9.76268 12.6767 10.2374 12.9696 10.5303C13.2625 10.8232 13.7373 10.8232 14.0302 10.5303L18.0302 6.53033L18.0819 6.47369C18.3222 6.17911 18.3048 5.74439 18.0302 5.46978L14.0302 1.46978L13.9735 1.41803C13.6789 1.17772 13.2442 1.19518 12.9696 1.46978C12.695 1.74439 12.6775 2.17911 12.9179 2.47369L12.9696 2.53033L15.6893 5.25006L5.49988 5.25006C5.08567 5.25006 4.74988 5.58584 4.74988 6.00006C4.74988 6.41427 5.08567 6.75006 5.49988 6.75006Z"/>
</g>
<defs>
<clipPath id="aclip0_2232_1684">
<rect width="12" height="23" transform="matrix(-4.37114e-08 -1 -1 4.37114e-08 23 12)"/>
</clipPath>
</defs>
</symbol><symbol viewBox="0 0 18 18" id="cart" xmlns="http://www.w3.org/2000/svg">
<path fill-rule="evenodd" clip-rule="evenodd" d="M13.6308 6H4.36872C3.86368 6 3.4379 6.37658 3.37621 6.87785L2.26852 14.8778C2.19513 15.4741 2.66029 16 3.26103 16H14.7385C15.3393 16 15.8044 15.4741 15.731 14.8778L14.6234 6.87784C14.5617 6.37658 14.1359 6 13.6308 6ZM4.36872 5C3.35863 5 2.50709 5.75316 2.3837 6.75569L1.27601 14.7557C1.12924 15.9482 2.05955 17 3.26103 17H14.7385C15.94 17 16.8703 15.9482 16.7236 14.7557L15.6159 6.75569C15.4925 5.75316 14.6409 5 13.6308 5H4.36872Z"/>
<path fill-rule="evenodd" clip-rule="evenodd" d="M9 1.5C7.61929 1.5 6.5 2.61929 6.5 4V8C6.5 8.27614 6.27614 8.5 6 8.5C5.72386 8.5 5.5 8.27614 5.5 8V4C5.5 2.067 7.067 0.5 9 0.5C10.933 0.5 12.5 2.067 12.5 4V8C12.5 8.27614 12.2761 8.5 12 8.5C11.7239 8.5 11.5 8.27614 11.5 8V4C11.5 2.61929 10.3807 1.5 9 1.5Z"/>
</symbol><symbol viewBox="0 0 12 12" id="close" xmlns="http://www.w3.org/2000/svg">
<path fill-rule="evenodd" clip-rule="evenodd" d="M10.3316 11.5685C10.6733 11.9102 11.2273 11.9102 11.569 11.5685C11.9107 11.2268 11.9107 10.6728 11.569 10.3311L7.238 6.00006L11.569 1.66906C11.9107 1.32735 11.9107 0.773335 11.569 0.431626C11.2273 0.0899172 10.6733 0.0899172 10.3316 0.431626L6.00056 4.76262L1.66951 0.431575C1.3278 0.0898655 0.773782 0.089866 0.432073 0.431575C0.0903644 0.773283 0.0903639 1.3273 0.432073 1.66901L4.76312 6.00006L0.432063 10.3311C0.0903538 10.6728 0.0903542 11.2268 0.432063 11.5686C0.773772 11.9103 1.32779 11.9103 1.6695 11.5686L6.00056 7.2375L10.3316 11.5685Z"/>
</symbol><symbol viewBox="0 0 18 18" id="copy" xmlns="http://www.w3.org/2000/svg">
<path d="M15.25 7.5C15.25 6.29051 14.3911 5.28142 13.25 5.0498V10.5L13.2451 10.6797C13.1546 12.4697 11.7197 13.9046 9.92969 13.9951L9.75 14H5.7998C6.03142 15.1411 7.04051 16 8.25 16H12.75C14.0443 16 15.1092 15.0164 15.2373 13.7559L15.25 13.5V7.5ZM16.25 13.5C16.25 15.3727 14.7792 16.9016 12.9297 16.9951L12.75 17H8.25C6.47563 17 5.0099 15.6796 4.78125 13.9678C3.06997 13.7386 1.75 12.274 1.75 10.5V7.24219C1.75012 6.31409 2.11912 5.42385 2.77539 4.76758L5.51758 2.02539C6.17385 1.36912 7.06409 1.00012 7.99219 1H9.75C11.524 1 12.9886 2.31997 13.2178 4.03125C14.9296 4.2599 16.25 5.72563 16.25 7.5V13.5ZM6.25 2.70898C6.24183 2.71693 6.23268 2.72435 6.22461 2.73242L3.48242 5.47461C3.47435 5.48268 3.46693 5.49183 3.45898 5.5H3.75C5.13071 5.5 6.25 4.38071 6.25 3V2.70898ZM7.25 3C7.25 4.933 5.683 6.5 3.75 6.5H2.86426C2.79008 6.73828 2.75005 6.98804 2.75 7.24219V10.5C2.75 11.8807 3.86929 13 5.25 13H9.75C11.1307 13 12.25 11.8807 12.25 10.5V4.5C12.25 3.11929 11.1307 2 9.75 2H7.99219C7.73814 2.00005 7.4882 2.03916 7.25 2.11328V3Z"/>
</symbol><symbol viewBox="0 0 9 9" id="link-arrow" xmlns="http://www.w3.org/2000/svg">
<g clip-path="url(#eclip0_2232_1700)">
<path fill-rule="evenodd" clip-rule="evenodd" d="M0.760869 8.96886L0.00585938 8.21378L7.15116 1.0678H0.916093V3.53396e-07L7.93304 4.66749e-08L9.00084 0V1.0678V8.08474H7.93304V1.796L0.760869 8.96886Z"/>
</g>
<defs>
<clipPath id="eclip0_2232_1700">
<rect width="9" height="9"/>
</clipPath>
</defs>
</symbol><symbol viewBox="0 0 194 60" id="logo" xmlns="http://www.w3.org/2000/svg">
<g clip-path="url(#fclip0_563_31847)">
<path d="M78.2118 21.1516C79.8697 19.4177 80.998 17.2111 81.4547 14.8098C81.9113 12.4086 81.6758 9.92026 80.7777 7.65832C79.8797 5.39639 78.3594 3.46212 76.4084 2.09927C74.4573 0.73642 72.1629 0.00598217 69.8142 0H53.3506V38.0758H60.657V24.7937H61.541L74.2432 38.0758L83.7134 38.1094L70.9284 24.7409C73.6852 24.4729 76.2636 23.2023 78.2118 21.1516ZM74.3813 12.3944C74.3813 13.8334 73.8335 15.2136 72.8581 16.232C71.8827 17.2504 70.5595 17.8238 69.1789 17.8263H60.657V6.96257H69.1697C70.5519 6.96257 71.8775 7.53485 72.8548 8.55353C73.8322 9.5722 74.3813 10.9538 74.3813 12.3944Z"/>
<path d="M152.735 5.56138C149.195 1.91455 144.761 0.0623358 139.55 0.0623358C136.356 0.0526066 133.217 0.931036 130.457 2.60703C127.698 4.28303 125.417 6.69592 123.85 9.59689C122.248 12.5393 121.413 15.868 121.428 19.2514C121.395 21.7427 121.85 24.2148 122.766 26.5161C123.682 28.8175 125.039 30.8995 126.755 32.6343C128.45 34.4134 130.47 35.8214 132.694 36.7754C134.954 37.7102 137.367 38.1795 139.798 38.1573C142.202 38.1701 144.583 37.6858 146.806 36.7325C149.029 35.7791 151.048 34.3758 152.746 32.6036C154.445 30.8314 155.789 28.7256 156.702 26.4081C157.614 24.0907 158.077 21.6076 158.062 19.1026C158.084 16.5737 157.631 14.0648 156.727 11.7178C155.809 9.40585 154.451 7.31162 152.735 5.56138ZM150.935 19.1026C150.96 21.2124 150.453 23.2921 149.466 25.1343C148.51 26.9033 147.108 28.3654 145.41 29.3618C143.671 30.3932 141.702 30.9294 139.701 30.9165C138.234 30.9216 136.78 30.6228 135.424 30.0374C134.069 29.452 132.838 28.5917 131.804 27.5064C130.77 26.421 129.953 25.1324 129.401 23.7153C128.849 22.2982 128.572 20.7808 128.588 19.2514C128.561 17.1383 129.067 15.0551 130.056 13.2101C131.032 11.4261 132.446 9.94534 134.154 8.9203C135.823 7.87821 137.732 7.3261 139.678 7.32242C141.678 7.31989 143.642 7.87311 145.369 8.9251C147.079 9.92414 148.502 11.3821 149.489 13.1478C150.464 14.9662 150.961 17.0202 150.93 19.1026H150.935Z"/>
<path d="M181.477 30.763V0.0432129H174.268V38.1334H194V30.763H181.477Z"/>
<path d="M105.112 0H98.082V38.095H105.112V0Z"/>
<path d="M19.723 24.9041H29.0644C28.5035 26.3482 27.5911 27.6151 26.4171 28.5797C24.4675 30.1849 22.0359 31.0195 19.5527 30.9357C17.3459 30.9564 15.1698 30.3952 13.2269 29.3043C11.3877 28.2761 9.85059 26.7471 8.77953 24.8801C7.73945 23.1034 7.1854 21.064 7.17736 18.9828C7.18352 16.9641 7.71668 14.9852 8.71968 13.2582C9.76948 11.4308 11.2788 9.9374 13.0842 8.93957C16.6338 6.93382 20.4505 6.79466 24.3684 8.52691C26.2663 9.39331 27.993 10.6202 29.4603 12.145L30.8093 13.5221L36.0946 8.31098L34.5891 6.82346C32.4469 4.63809 29.9354 2.88436 27.1814 1.6507C24.5843 0.5544 21.8068 -0.00304527 19.0048 0.00962995C15.6204 -0.0371603 12.2808 0.820212 9.30438 2.50003C6.46659 4.13128 4.10804 6.53642 2.48136 9.45781C0.844413 12.3674 -0.0126178 15.6819 -0.000148119 19.0547C-0.0419772 23.5466 1.50148 27.8979 4.33674 31.2812C6.14189 33.5027 8.41351 35.2611 10.9756 36.4204C13.6655 37.5808 16.5543 38.1571 19.4652 38.1142C21.873 38.1518 24.2678 37.7406 26.5369 36.9002C28.6601 36.0805 30.5874 34.7904 32.1859 33.119C33.7913 31.4434 35.0317 29.4271 35.823 27.2073C36.6453 24.822 37.0583 22.3043 37.043 19.7697V17.7112H19.723V24.9041Z"/>
<path d="M40.5837 54.2803C39.3498 53.8532 38.848 53.6133 38.848 52.9319C38.848 52.2505 39.4143 51.7035 40.2982 51.7035C40.6769 51.6835 41.0516 51.7919 41.3661 52.0125C41.6807 52.2331 41.9182 52.554 42.0431 52.9271L42.2227 53.4069L43.5025 52.6632L43.3598 52.3033C43.1134 51.672 42.6886 51.1338 42.1417 50.7601C41.5949 50.3865 40.9519 50.195 40.2982 50.2112C38.5948 50.2112 37.3563 51.3772 37.3563 52.9799C37.3563 54.7937 38.8296 55.2927 40.2476 55.7726H40.289C41.7254 56.2524 42.1306 56.5691 42.1306 57.2121C42.1306 58.0326 41.5229 58.5029 40.464 58.5029C39.4051 58.5029 38.6224 57.9943 38.383 57.0634L38.2311 56.5163L36.9189 57.3177L37.0248 57.6536C37.4852 59.0931 38.7927 60 40.464 60C42.3516 60 43.6176 58.8676 43.6176 57.1833C43.6222 55.3263 42.0109 54.7697 40.5837 54.2803Z"/>
<path d="M45.6387 51.8282H48.2491V59.8656H49.7362V51.8282H52.3466V50.3263H45.6387V51.8282Z"/>
<path d="M54.6715 58.0134C54.4175 58.0134 54.1739 58.1186 53.9943 58.3058C53.8147 58.4929 53.7139 58.7468 53.7139 59.0115C53.7139 59.2762 53.8147 59.5301 53.9943 59.7173C54.1739 59.9044 54.4175 60.0096 54.6715 60.0096C54.9255 60.0096 55.169 59.9044 55.3486 59.7173C55.5282 59.5301 55.6291 59.2762 55.6291 59.0115C55.6291 58.7468 55.5282 58.4929 55.3486 58.3058C55.169 58.1186 54.9255 58.0134 54.6715 58.0134Z"/>
<path d="M67.682 50.3359H64.4316V59.8753H65.9095V56.5739H67.682C68.4757 56.5739 69.2368 56.2453 69.7981 55.6604C70.3593 55.0755 70.6746 54.2821 70.6746 53.4549C70.6746 52.6277 70.3593 51.8344 69.7981 51.2495C69.2368 50.6645 68.4757 50.3359 67.682 50.3359ZM67.682 55.072H65.9095V51.8235H67.682C68.0795 51.846 68.4536 52.0265 68.7273 52.3277C69.001 52.6289 69.1535 53.0281 69.1535 53.4429C69.1535 53.8578 69.001 54.2569 68.7273 54.5582C68.4536 54.8594 68.0795 55.0399 67.682 55.0624V55.072Z"/>
<path d="M75.2418 55.8109H79.04V54.309H75.2418V51.8282H79.3393V50.3263H73.7686V59.8656H79.3992V58.3637H75.2418V55.8109Z"/>
<path d="M81.7061 51.8282H84.3165V59.8656H85.8035V51.8282H88.414V50.3263H81.7061V51.8282Z"/>
<path d="M92.7184 55.8109H96.5166V54.309H92.7184V51.8282H96.8113V50.3263H91.2451V59.8656H96.8711V58.3637H92.7184V55.8109Z"/>
<path d="M112.543 54.2802C111.305 53.8531 110.803 53.6132 110.803 52.9318C110.803 52.2504 111.374 51.7034 112.253 51.7034C112.632 51.6826 113.007 51.7908 113.322 52.0115C113.636 52.2322 113.874 52.5535 113.998 52.927L114.182 53.4069L115.444 52.6391L115.296 52.2792C115.05 51.648 114.625 51.1097 114.078 50.7361C113.531 50.3624 112.888 50.1709 112.235 50.1871C110.531 50.1871 109.297 51.3531 109.297 52.9558C109.297 54.7696 110.766 55.2687 112.189 55.7485H112.226C113.662 56.2284 114.067 56.5451 114.067 57.1881C114.067 58.0086 113.459 58.4788 112.4 58.4788C111.342 58.4788 110.559 57.9702 110.315 57.0393L110.163 56.4923L108.855 57.2936L108.961 57.6295C109.422 59.0691 110.725 59.976 112.4 59.976C114.288 59.976 115.554 58.8435 115.554 57.1593C115.586 55.3263 113.97 54.7696 112.543 54.2802Z"/>
<path d="M124.223 54.8753C124.451 54.6337 124.632 54.3474 124.753 54.0327C124.875 53.7181 124.936 53.3815 124.932 53.0423C124.928 52.3282 124.655 51.6441 124.172 51.1378C123.689 50.6315 123.034 50.3435 122.349 50.3359H118.615V59.8753H122.625C123.338 59.874 124.021 59.5784 124.525 59.0531C125.029 58.5279 125.313 57.8158 125.314 57.073C125.313 56.6426 125.213 56.2188 125.023 55.8365C124.834 55.4543 124.559 55.1248 124.223 54.8753ZM122.602 58.3638H120.07V55.7582H122.602C122.921 55.7783 123.22 55.9244 123.438 56.1665C123.657 56.4086 123.779 56.7285 123.779 57.061C123.779 57.3935 123.657 57.7134 123.438 57.9555C123.22 58.1976 122.921 58.3436 122.602 58.3638ZM122.326 54.2563H120.07V51.8235H122.349C122.646 51.8429 122.924 51.9795 123.128 52.2055C123.332 52.4315 123.445 52.7299 123.445 53.0399C123.445 53.3499 123.332 53.6482 123.128 53.8742C122.924 54.1002 122.646 54.2368 122.349 54.2563H122.326Z"/>
<path d="M133.638 56.5308C133.638 57.7736 132.911 58.4885 131.64 58.4885C130.369 58.4885 129.656 57.7736 129.656 56.5308V50.3359H128.178V56.5403C128.178 58.6133 129.559 60.0096 131.64 60.0096C133.721 60.0096 135.111 58.6133 135.111 56.5403V50.3359H133.638V56.5308Z"/>
<path d="M151.966 54.9521V56.4492H155.419C155.115 57.7016 154.038 58.4885 152.546 58.4885C152.119 58.4917 151.695 58.4071 151.299 58.2395C150.903 58.0719 150.542 57.8247 150.238 57.5119C149.933 57.1991 149.691 56.8268 149.525 56.4165C149.358 56.0061 149.271 55.5655 149.268 55.12C149.265 54.6745 149.346 54.2327 149.507 53.8199C149.668 53.4071 149.905 53.0314 150.205 52.7141C150.505 52.3969 150.863 52.1443 151.256 51.9709C151.65 51.7975 152.073 51.7067 152.5 51.7035C153.035 51.6928 153.562 51.833 154.027 52.1092C154.491 52.3855 154.875 52.7874 155.138 53.2726L155.345 53.6853L156.644 52.8791L156.437 52.5001C156.033 51.7885 155.456 51.2003 154.765 50.7943C154.075 50.3883 153.293 50.179 152.5 50.1872C151.87 50.1701 151.242 50.2852 150.655 50.5256C150.068 50.7661 149.533 51.127 149.083 51.5869C148.632 52.0468 148.275 52.5964 148.032 53.203C147.789 53.8097 147.665 54.461 147.668 55.1184C147.671 55.7758 147.801 56.4258 148.05 57.0299C148.298 57.6341 148.661 58.18 149.116 58.6353C149.571 59.0906 150.109 59.446 150.698 59.6804C151.287 59.9149 151.916 60.0236 152.546 60.0001C155.115 60.0001 156.98 58.2006 156.98 55.7246V54.9521H151.966Z"/>
<path d="M104.417 56.2045C105.078 56.0034 105.648 55.5614 106.023 54.959C106.397 54.3565 106.552 53.6338 106.458 52.9225C106.364 52.2112 106.029 51.5587 105.512 51.0839C104.995 50.6091 104.332 50.3437 103.643 50.3359H99.96V59.8801H101.438V56.3292H102.22L105.876 59.8753H107.842L104.136 56.2764L104.417 56.2045ZM101.419 51.8235H103.643C104.024 51.8235 104.389 51.9812 104.659 52.262C104.928 52.5427 105.08 52.9235 105.08 53.3206C105.08 53.7176 104.928 54.0984 104.659 54.3792C104.389 54.66 104.024 54.8177 103.643 54.8177H101.419V51.8235Z"/>
<path d="M143.066 56.1997C143.725 55.9953 144.291 55.5519 144.663 54.9497C145.034 54.3475 145.187 53.6265 145.092 52.9174C144.997 52.2082 144.662 51.5579 144.147 51.0843C143.632 50.6107 142.971 50.3452 142.284 50.3359H138.601V59.8849H140.078V56.3292H140.861L144.517 59.8753H146.482L142.799 56.2764C142.889 56.2553 142.979 56.2297 143.066 56.1997ZM142.293 51.8235C142.659 51.8451 143.004 52.012 143.256 52.29C143.508 52.5679 143.648 52.9358 143.648 53.3182C143.648 53.7006 143.508 54.0685 143.256 54.3464C143.004 54.6244 142.659 54.7913 142.293 54.8129H140.069V51.8235H142.293Z"/>
</g>
<defs>
<clipPath id="fclip0_563_31847">
<rect width="194" height="60"/>
</clipPath>
</defs>
</symbol><symbol viewBox="0 0 24 24" id="notification" xmlns="http://www.w3.org/2000/svg">
<path d="M14.5324 18.8242C14.6294 18.5659 14.9175 18.4354 15.1759 18.5322C15.4342 18.6293 15.5648 18.9173 15.4679 19.1758C14.9551 20.5435 13.5853 21.5 12.0001 21.5C10.5138 21.5 9.21653 20.6591 8.63782 19.4268L8.53235 19.1758L8.50599 19.0771C8.46992 18.8477 8.59848 18.6171 8.82435 18.5322C9.08279 18.4354 9.37084 18.5659 9.4679 18.8242C9.82861 19.7867 10.8154 20.5 12.0001 20.5C13.1849 20.5 14.1716 19.7867 14.5324 18.8242ZM12.0001 2.5C15.4949 2.5 18.4158 5.1932 18.8175 8.7373L19.1622 11.7822C19.2369 12.4413 19.5041 13.0601 19.9259 13.5566C21.216 15.0756 20.1942 17.5 18.17 17.5H5.83021C3.80603 17.5 2.78428 15.0756 4.07435 13.5566C4.49618 13.0601 4.76335 12.4413 4.83802 11.7822L5.18274 8.7373C5.58443 5.1932 8.50533 2.5 12.0001 2.5ZM12.0001 3.5C9.03696 3.5 6.52375 5.78854 6.17689 8.85059L5.83216 11.8945C5.73543 12.7484 5.38914 13.5543 4.83704 14.2041C4.06072 15.1179 4.71594 16.5 5.83021 16.5H18.17C19.2843 16.5 19.9395 15.1179 19.1632 14.2041C18.6111 13.5543 18.2648 12.7484 18.1681 11.8945L17.8234 8.85059C17.4765 5.78854 14.9633 3.5 12.0001 3.5Z"/>
</symbol><symbol viewBox="0 0 16 16" id="plus" xmlns="http://www.w3.org/2000/svg">
<path d="M7.5 12V8.5H4C3.72386 8.5 3.5 8.27614 3.5 8C3.5 7.72386 3.72386 7.5 4 7.5H7.5V4C7.5 3.72386 7.72386 3.5 8 3.5C8.27614 3.5 8.5 3.72386 8.5 4V7.5H12C12.2761 7.5 12.5 7.72386 12.5 8C12.5 8.27614 12.2761 8.5 12 8.5H8.5V12C8.5 12.2761 8.27614 12.5 8 12.5C7.72386 12.5 7.5 12.2761 7.5 12Z"/>
</symbol><symbol viewBox="0 0 18 18" id="search" xmlns="http://www.w3.org/2000/svg">
<path d="M13.75 8.25C13.75 5.21243 11.2876 2.75 8.25 2.75C5.21243 2.75 2.75 5.21243 2.75 8.25C2.75 11.2876 5.21243 13.75 8.25 13.75C11.2876 13.75 13.75 11.2876 13.75 8.25ZM14.75 8.25C14.75 11.8399 11.8399 14.75 8.25 14.75C4.66015 14.75 1.75 11.8399 1.75 8.25C1.75 4.66015 4.66015 1.75 8.25 1.75C11.8399 1.75 14.75 4.66015 14.75 8.25Z"/>
<path d="M12.1338 12.134C12.329 11.9387 12.6455 11.9387 12.8408 12.134L16.1035 15.3967L16.167 15.4748C16.2953 15.6689 16.2744 15.9328 16.1035 16.1037C15.9325 16.2747 15.6687 16.2955 15.4746 16.1672L15.3964 16.1037L12.1338 12.841C11.9385 12.6458 11.9385 12.3293 12.1338 12.134Z"/>
</symbol><symbol viewBox="0 0 16 16" id="select" xmlns="http://www.w3.org/2000/svg">
<path d="M6.27544 4.97916C6.1032 4.76364 6.13828 4.44952 6.35356 4.27701C6.56913 4.10456 6.88415 4.13871 7.05669 4.35416L9.7227 7.68814C9.86879 7.87075 9.86879 8.13054 9.7227 8.31314L7.05669 11.6462L6.9854 11.7184C6.80666 11.8671 6.54218 11.8752 6.35356 11.7243C6.16481 11.5733 6.11467 11.3132 6.22075 11.1061L6.27544 11.0212L8.69145 8.00064L6.27544 4.97916Z"/>
</symbol><symbol viewBox="0 0 18 19" id="select2" xmlns="http://www.w3.org/2000/svg">
<path d="M6.91435 6.21875C6.6556 5.8953 6.70809 5.42282 7.03154 5.16406C7.35499 4.90531 7.82747 4.9578 8.08623 5.28125L11.0862 9.03125C11.3054 9.30516 11.3054 9.69484 11.0862 9.96875L8.08623 13.7188L8.03545 13.7764C7.7692 14.0477 7.33478 14.0785 7.03154 13.8359C6.72835 13.5934 6.66327 13.163 6.86943 12.8438L6.91435 12.7813L9.53935 9.5L6.91435 6.21875Z"/>
</symbol><symbol viewBox="0 0 22 16" id="slider-arrow" xmlns="http://www.w3.org/2000/svg">
<path d="M18.172 6.99968L12.808 1.63568L14.222 0.22168L22 7.99968L14.222 15.7777L12.808 14.3637L18.172 8.99968H0V6.99968H18.172Z"/>
</symbol><symbol viewBox="0 0 18 16" id="telegram" xmlns="http://www.w3.org/2000/svg">
<path d="M16.2617 0.618261C16.2617 0.618261 17.5285 0.0507742 17.5508 0.989352L14.7764 14.9248C14.7764 14.9248 14.3834 15.8864 13.335 15.4277L9.40341 12.4131L6.87023 14.707C6.87023 14.707 6.6735 14.8596 6.4552 14.7724C6.4552 14.7724 6.25858 14.7501 6.04016 14.0293C5.79967 13.2859 4.62025 9.42093 4.62025 9.42093L0.710139 8.11039C0.698309 8.10596 0.119928 7.88744 0.0548727 7.43364C-0.0106544 6.97495 0.7326 6.71294 0.7326 6.71294L16.2617 0.618261ZM14.5362 3.45808C14.5577 3.13453 14.026 3.45017 14.0127 3.45808L5.42786 8.91898C5.29718 9.0064 5.25337 9.15917 5.297 9.29007L6.32336 12.6533C6.38885 12.8498 6.67296 12.8284 6.71691 12.6104L6.95714 10.5567C6.95718 10.4694 7.00104 10.404 7.06652 10.3604C7.89636 9.61788 14.0754 4.07187 14.3399 3.80769C14.6238 3.5019 14.5362 3.45808 14.5362 3.45808Z"/>
</symbol><symbol viewBox="0 0 18 18" id="user" xmlns="http://www.w3.org/2000/svg">
<path d="M16 9C16 5.13401 12.866 2 9 2C5.13401 2 2 5.13401 2 9C2 10.8636 2.72894 12.5557 3.91699 13.8105C4.88187 11.9907 6.79541 10.75 9 10.75C11.2044 10.75 13.1171 11.9909 14.082 13.8105C15.2704 12.5557 16 10.8639 16 9ZM9 11.75C7.08753 11.75 5.43747 12.8802 4.68457 14.5107C5.87387 15.4435 7.3712 16 9 16C10.6285 16 12.1253 15.4432 13.3145 14.5107C12.5615 12.8804 10.9123 11.75 9 11.75ZM17 9C17 11.4108 15.9329 13.5731 14.2471 15.0391C12.8427 16.2602 11.0071 17 9 17C6.99286 17 5.15726 16.2602 3.75293 15.0391C2.06713 13.5731 1 11.4108 1 9C1 4.58172 4.58172 1 9 1C13.4183 1 17 4.58172 17 9Z"/>
<path d="M10.75 6.75C10.75 7.7165 9.9665 8.5 9 8.5C8.0335 8.5 7.25 7.7165 7.25 6.75C7.25 5.7835 8.0335 5 9 5C9.9665 5 10.75 5.7835 10.75 6.75ZM11.75 6.75C11.75 5.23122 10.5188 4 9 4C7.48122 4 6.25 5.23122 6.25 6.75C6.25 8.26878 7.48122 9.5 9 9.5C10.5188 9.5 11.75 8.26878 11.75 6.75Z"/>
</symbol><symbol viewBox="0 0 20 13" id="vk" xmlns="http://www.w3.org/2000/svg">
<path d="M15.0612 6.62132C17.4966 7.86951 19.2266 10.1236 19.9968 12.8241C20.0065 12.8576 19.9942 12.875 19.9605 12.875H16.5846C16.5717 12.875 16.5633 12.869 16.5594 12.8563C15.8262 10.5085 13.9977 8.68 11.5739 8.41363C11.5597 8.41229 11.5532 8.41831 11.5532 8.43304V12.8469C11.5532 12.8596 11.5467 12.8663 11.5344 12.867C8.19546 12.9727 5.07154 11.8115 3.04032 8.99389C1.29797 6.57849 0.669692 3.34657 0.625 0.398425C0.625 0.383031 0.632125 0.375 0.647022 0.375H3.91279C3.92963 0.375 3.93805 0.383701 3.9387 0.400432C3.9808 1.82799 4.14402 3.18193 4.55273 4.54925C5.13049 6.48077 6.4136 8.4665 8.40921 9.02601C8.4241 9.03003 8.43123 9.02468 8.43123 9.00861V0.400432C8.43123 0.383701 8.43965 0.375 8.45584 0.375H11.5286C11.5448 0.375 11.5532 0.383701 11.5532 0.400432V5.29415C11.5532 5.30955 11.5668 5.32159 11.5817 5.31958C13.8532 4.93944 15.5334 2.52203 16.15 0.399763C16.1545 0.383701 16.1649 0.375669 16.1811 0.375669H19.2532C19.2681 0.375669 19.2785 0.389724 19.2759 0.404448C18.781 2.99453 17.1967 5.20982 15.0612 6.59856C15.0483 6.60726 15.0483 6.61463 15.0625 6.62199L15.0612 6.62132Z"/>
</symbol><symbol viewBox="0 0 18 18" id="wishlist" xmlns="http://www.w3.org/2000/svg">
<path d="M16.3389 6.37463C16.3388 5.89858 16.2447 5.42673 16.0625 4.98694C15.903 4.60215 15.6786 4.24801 15.3994 3.94006L15.2764 3.81116C14.9397 3.47436 14.5395 3.2073 14.0996 3.02502C13.6597 2.84274 13.1881 2.74866 12.7119 2.74866C12.2358 2.74868 11.7641 2.84277 11.3242 3.02502C10.8844 3.2073 10.485 3.47445 10.1484 3.81116L9.35352 4.60608C9.15833 4.80127 8.84176 4.80112 8.64648 4.60608L7.85059 3.81116C7.17061 3.13128 6.24868 2.74866 5.28711 2.74866C4.32554 2.74866 3.40361 3.13128 2.72363 3.81116C2.04372 4.49107 1.66124 5.41311 1.66113 6.37463C1.66113 7.3363 2.04363 8.25909 2.72363 8.93909L9 15.2155L15.2764 8.93909C15.6131 8.60246 15.8802 8.20224 16.0625 7.76233C16.2447 7.3225 16.3389 6.8507 16.3389 6.37463ZM17.3389 6.37463C17.3389 6.98207 17.2188 7.58395 16.9863 8.14514C16.7828 8.63626 16.4959 9.08806 16.1396 9.48108L15.9834 9.64612L9.35352 16.276C9.15831 16.4712 8.84176 16.4711 8.64648 16.276L2.01562 9.64612C1.14821 8.7786 0.661133 7.60143 0.661133 6.37463C0.661237 5.14803 1.14836 3.97154 2.01562 3.10413C2.88316 2.23659 4.06023 1.74866 5.28711 1.74866C6.51399 1.74866 7.69106 2.23659 8.55859 3.10413L9 3.54553L9.44141 3.10413C9.87078 2.6746 10.3803 2.33372 10.9414 2.1012C11.5026 1.86866 12.1044 1.74868 12.7119 1.74866C13.3195 1.74866 13.9211 1.86863 14.4824 2.1012C15.0437 2.33376 15.5539 2.67443 15.9834 3.10413C16.4129 3.53347 16.7538 4.04312 16.9863 4.60413C17.2188 5.16528 17.3388 5.76722 17.3389 6.37463Z"/>
</symbol></svg>